<?xml version="1.0" encoding="UTF-8" standalone="no"?>
<!DOCTYPE svg PUBLIC "-//W3C//DTD SVG 1.1//EN" "http://www.w3.org/Graphics/SVG/1.1/DTD/svg11.dtd">
<svg width="100%" height="100%" viewBox="0 0 2517 775" version="1.1" xmlns="http://www.w3.org/2000/svg" xmlns:xlink="http://www.w3.org/1999/xlink" xml:space="preserve" xmlns:serif="http://www.serif.com/" style="fill-rule:evenodd;clip-rule:evenodd;stroke-linejoin:round;stroke-miterlimit:2;">
    <g transform="matrix(0.1,0,0,-0.1,0,775)">
        <path d="M12633,7216C12616,7208 12594,7190 12585,7176C12575,7162 12555,7078 12539,6988C12523,6898 12503,6791 12495,6750C12487,6708 12457,6540 12429,6375C12402,6210 12368,6014 12355,5940C12343,5866 12302,5632 12266,5420C12230,5208 12191,4983 12180,4920C12169,4857 12141,4699 12119,4570C12097,4441 12063,4245 12044,4135C12025,4025 11974,3726 11930,3470C11887,3214 11826,2861 11796,2685C11765,2510 11740,2364 11740,2363C11740,2361 11736,2360 11731,2360C11726,2360 11715,2388 11707,2423C11692,2489 11606,2809 11510,3160C11478,3278 11415,3512 11370,3680C11325,3848 11259,4093 11223,4225C11188,4357 11143,4526 11123,4600C11067,4818 11047,4849 10952,4857C10892,4863 10858,4850 10826,4807C10800,4773 10777,4670 10670,4110C10627,3880 10489,3174 10430,2880C10403,2745 10365,2550 10345,2445C10326,2341 10307,2243 10304,2227L10298,2200L9520,2200L9525,2177C9529,2157 9553,2018 9566,1942L9571,1909L10015,1912C10445,1915 10459,1916 10486,1936C10549,1983 10547,1974 10659,2550C10717,2850 10776,3158 10821,3395C10889,3756 10958,4084 10963,4070C10974,4041 11119,3524 11165,3350C11190,3254 11232,3099 11257,3005C11281,2912 11317,2779 11335,2710C11353,2641 11389,2509 11415,2415C11440,2322 11500,2106 11547,1935C11640,1595 11647,1580 11724,1559C11797,1539 11864,1565 11893,1623C11902,1640 11928,1761 11950,1890C11972,2019 11997,2161 12005,2205C12013,2249 12051,2476 12090,2710C12128,2944 12171,3198 12185,3275C12199,3352 12251,3656 12301,3950C12350,4244 12398,4523 12406,4570C12414,4617 12428,4696 12436,4745C12444,4795 12464,4909 12480,5000C12530,5275 12621,5798 12636,5898C12643,5946 12660,5937 12660,5885C12660,5860 12669,5744 12680,5627C12698,5433 12725,5121 12765,4655C12789,4367 12810,4123 12820,4010C12832,3875 12873,3391 12905,2995C12919,2825 12939,2579 12950,2450C12961,2321 12981,2085 12995,1925C13008,1766 13026,1554 13035,1455C13043,1356 13064,1117 13080,923C13118,473 13126,408 13145,371C13169,323 13222,303 13307,308C13319,309 13342,322 13359,336C13385,358 13400,395 13469,603C13513,736 13569,913 13595,995C13679,1269 13731,1433 13790,1615C13822,1714 13856,1821 13865,1852L13881,1910L14226,1910C14415,1910 14570,1913 14570,1918C14570,1922 14548,1986 14521,2060L14473,2195L14112,2198C13713,2201 13695,2198 13666,2142C13657,2125 13626,2036 13596,1943C13523,1717 13429,1418 13390,1293C13373,1236 13355,1188 13350,1185C13338,1178 13335,1208 13305,1605C13290,1792 13276,1963 13274,1985C13271,2007 13259,2162 13245,2330C13214,2722 13154,3436 13134,3655C13116,3854 13095,4095 13075,4340C13024,4957 12977,5516 12960,5705C12949,5826 12931,6031 12920,6160C12899,6402 12857,6861 12840,7031C12835,7083 12826,7138 12821,7152C12799,7212 12699,7246 12633,7216Z" style="fill:rgb(212,52,42);fill-rule:nonzero;"/>
        <path d="M4150,4003C4150,3010 4154,2382 4160,2328C4181,2147 4256,1988 4351,1924C4429,1872 4499,1855 4635,1856C4748,1856 4847,1870 4879,1889C4890,1896 4889,1920 4871,2031C4859,2105 4847,2175 4844,2187C4840,2207 4834,2209 4776,2208C4687,2207 4642,2230 4610,2295L4585,2345L4582,3968L4580,5590L4150,5590L4150,4003Z" style="fill-rule:nonzero;"/>
        <path d="M20320,5394C19675,5315 19206,4847 19056,4132C19018,3949 19007,3831 19007,3610C19007,3297 19035,3114 19121,2856C19256,2449 19501,2153 19840,1984C20232,1789 20729,1796 21081,2000C21206,2073 21357,2204 21458,2328L21493,2371L21459,2408C21440,2428 21420,2449 21414,2455C21409,2460 21369,2504 21326,2552L21248,2640L21173,2560C21036,2415 20888,2315 20730,2264C20650,2237 20634,2236 20470,2236C20285,2236 20224,2246 20104,2299C19978,2355 19808,2497 19709,2630C19623,2745 19541,2942 19499,3133C19432,3437 19434,3850 19504,4135C19579,4441 19752,4714 19965,4860C20033,4907 20164,4965 20250,4986C20354,5012 20605,5012 20705,4986C20852,4947 20970,4878 21100,4753C21143,4713 21181,4680 21186,4681C21191,4681 21231,4727 21275,4783C21319,4838 21370,4901 21389,4923L21423,4961L21354,5031C21112,5276 20855,5386 20505,5395C20423,5397 20339,5396 20320,5394Z" style="fill-rule:nonzero;"/>
        <path d="M23140,5393C22956,5375 22724,5307 22584,5229C22214,5024 21948,4668 21839,4230C21737,3825 21736,3376 21837,2985C21970,2469 22313,2075 22761,1926C22903,1878 22985,1862 23154,1849C23574,1817 23896,1917 24213,2179L24300,2251L24298,2977L24295,3703L23185,3701L23182,3515L23180,3330L23890,3330L23890,2423L23836,2387C23753,2332 23648,2282 23563,2258C23494,2237 23464,2235 23290,2236C23063,2236 22997,2249 22843,2325C22472,2508 22262,2872 22209,3424C22195,3570 22202,3796 22225,3956C22299,4478 22600,4867 23016,4980C23129,5011 23352,5018 23475,4995C23656,4961 23809,4881 23949,4746L24022,4675L24056,4715C24074,4737 24128,4802 24175,4860L24261,4965L24172,5051C23967,5248 23735,5357 23445,5390C23360,5399 23218,5401 23140,5393Z" style="fill-rule:nonzero;"/>
        <path d="M1395,5343L1325,5339L1328,3628C1329,2686 1331,1915 1333,1914C1336,1911 1513,1908 1643,1909L1750,1910L1750,3278L2163,3283C2582,3289 2642,3293 2799,3335C3131,3421 3383,3646 3479,3940C3569,4219 3554,4597 3445,4829C3313,5107 3066,5267 2678,5326C2582,5341 2483,5344 2015,5345C1713,5346 1434,5345 1395,5343ZM2505,4979C2627,4964 2728,4937 2808,4898C2893,4857 3006,4747 3044,4669C3115,4521 3131,4242 3076,4074C3018,3894 2897,3770 2712,3703C2582,3656 2510,3648 2118,3643L1750,3638L1750,4990L2083,4990C2265,4990 2456,4985 2505,4979Z" style="fill-rule:nonzero;"/>
        <path d="M16673,5342L16580,5339L16579,3882C16579,2309 16579,2058 16580,1963L16580,1900L17557,1902C18095,1903 18545,1906 18557,1908C18580,1912 18580,1913 18580,2096L18580,2280L17010,2280L17010,3540L18290,3540L18288,3723L18285,3905L17648,3908L17010,3910L17010,4970L18540,4970L18540,5155C18540,5324 18538,5340 18523,5341C18482,5344 16757,5345 16673,5342Z" style="fill-rule:nonzero;"/>
        <path d="M8324,5189C8317,5177 8311,5104 8285,4715C8276,4583 8268,4475 8267,4474C8266,4473 8202,4467 8125,4461C8048,4455 7961,4447 7932,4444L7880,4438L7882,4276L7885,4115L8072,4112L8259,4110L8263,3277L8266,2445L8292,2349C8344,2158 8446,2011 8580,1934C8680,1877 8763,1858 8930,1853C9061,1849 9101,1851 9189,1870C9292,1891 9407,1926 9424,1940C9431,1947 9368,2240 9354,2261C9352,2265 9311,2254 9263,2237C9186,2211 9160,2207 9060,2206C8949,2205 8942,2206 8877,2238C8762,2295 8707,2392 8690,2569C8685,2622 8680,2990 8680,3388L8680,4110L9360,4110L9360,4460L8680,4460L8680,5200L8506,5200C8390,5200 8329,5196 8324,5189Z" style="fill-rule:nonzero;"/>
        <path d="M6330,4514C6316,4512 6271,4505 6230,4499C6009,4467 5812,4365 5649,4200C5461,4009 5352,3785 5293,3470C5268,3336 5268,3023 5293,2885C5362,2507 5536,2217 5808,2032C5977,1916 6131,1864 6335,1852C6566,1839 6736,1865 6897,1940C7236,2098 7464,2396 7553,2800C7598,3002 7601,3318 7561,3523C7458,4037 7141,4391 6692,4490C6609,4509 6383,4524 6330,4514ZM6635,4126C6901,4037 7076,3785 7137,3405C7157,3280 7150,2985 7125,2870C7079,2660 7006,2517 6880,2389C6813,2322 6779,2296 6719,2267C6480,2154 6203,2193 6011,2367C5869,2495 5773,2687 5733,2920C5710,3051 5711,3321 5734,3455C5799,3826 6006,4080 6295,4144C6397,4167 6534,4159 6635,4126Z" style="fill-rule:nonzero;"/>
        <path d="M13803,4443C13806,4433 13841,4342 13880,4240C13980,3979 14034,3840 14139,3565C14190,3433 14242,3298 14255,3265C14561,2482 14770,1918 14770,1873C14770,1839 14708,1659 14654,1537C14571,1349 14484,1246 14360,1186C14298,1157 14289,1155 14185,1157C14125,1157 14051,1165 14022,1173C13993,1181 13968,1184 13966,1181C13963,1177 13946,1107 13926,1025C13907,942 13888,868 13885,859C13880,846 13891,839 13937,827C14073,789 14192,782 14325,805C14497,835 14627,902 14754,1027C14926,1196 15013,1382 15273,2140C15325,2291 15384,2460 15404,2515C15423,2570 15477,2725 15524,2860C15570,2995 15643,3204 15685,3325C15728,3446 15793,3635 15832,3745C15870,3855 15919,3997 15942,4060C15964,4123 15988,4193 15995,4215C16002,4237 16024,4299 16044,4353C16064,4407 16080,4453 16080,4455C16080,4458 15986,4460 15872,4460L15664,4460L15621,4328C15598,4255 15541,4080 15495,3940C15449,3800 15379,3584 15340,3460C15300,3336 15228,3111 15180,2960C15067,2607 15014,2437 14999,2378C14993,2351 14984,2330 14981,2330C14977,2330 14924,2480 14863,2663C14728,3065 14522,3656 14277,4342L14235,4460L14016,4460C13813,4460 13798,4459 13803,4443Z" style="fill:rgb(212,52,42);fill-rule:nonzero;"/>
        <path d="M15451,2173C15438,2139 15360,1917 15360,1912C15360,1911 15604,1910 15903,1912L16445,1915L16444,1955C16443,1977 16442,2041 16441,2098L16440,2200L15462,2200L15451,2173Z" style="fill:rgb(212,52,42);fill-rule:nonzero;"/>
    </g>
</svg>
